<?xml version="1.0" encoding="UTF-8"?>
<svg version="1.1" xmlns="http://www.w3.org/2000/svg" width="300" height="300">
<path d="M0 0 C1.8556809 -0.00678574 3.71135505 -0.01569422 5.5670166 -0.02655029 C10.57951041 -0.04923645 15.59148644 -0.04055159 20.60398865 -0.02465487 C25.86523774 -0.01194031 31.12644436 -0.02375135 36.38769531 -0.03158569 C45.22078356 -0.04066611 54.05366235 -0.02873656 62.88671875 -0.00488281 C73.07919222 0.02232528 83.2711655 0.01350999 93.46362686 -0.01401484 C102.23596585 -0.03675074 111.00815481 -0.0398841 119.78051376 -0.02682149 C125.01053814 -0.01905161 130.24032789 -0.0179174 135.47033691 -0.03450394 C140.38884233 -0.04901475 145.3067068 -0.03880671 150.22514343 -0.01003265 C152.02336059 -0.00345704 153.82163227 -0.00525869 155.61982727 -0.01634598 C165.62250737 -0.07230455 173.69952163 0.22645509 182.484375 5.64697266 C183.13049744 6.0295542 183.77661987 6.41213573 184.44232178 6.80631065 C190.9321431 11.43510343 195.41213294 19.99803726 196.8876524 27.77157497 C197.51562218 33.37125798 197.41720078 38.984748 197.35839844 44.61083984 C197.3646233 46.47844118 197.37385474 48.3460345 197.38583374 50.21360779 C197.40903055 55.24465972 197.38873588 60.27464718 197.3587904 65.30562878 C197.3334642 70.59000707 197.344208 75.87433312 197.34967041 81.15875244 C197.35324515 90.02527965 197.32881567 98.89138957 197.28710938 107.7578125 C197.23928137 117.99072065 197.23409521 128.22297075 197.2520597 138.45596004 C197.26856102 148.3295851 197.25667475 158.20297604 197.23133087 168.07657623 C197.22096166 172.26615709 197.22011065 176.45557752 197.22698212 180.64516449 C197.23366263 185.58016475 197.21528884 190.51447001 197.17796707 195.44932747 C197.16820405 197.25440217 197.16680136 199.05954553 197.17461014 200.86462975 C197.21022652 210.38461468 197.11638476 218.5211628 191.484375 226.64697266 C190.86175781 227.56091797 190.23914063 228.47486328 189.59765625 229.41650391 C188.70626953 230.42777344 188.70626953 230.42777344 187.796875 231.45947266 C186.92482422 232.49007812 186.92482422 232.49007812 186.03515625 233.54150391 C176.27107291 241.60098464 166.76537245 241.36654144 154.69921875 241.29394531 C152.80265465 241.30072908 150.90609715 241.30963646 149.009552 241.32049561 C143.88137143 241.34320513 138.75369627 241.33448711 133.62550735 241.31860018 C128.24633725 241.30589787 122.867209 241.3176933 117.48803711 241.32553101 C108.45646434 241.33461496 99.42509633 241.32267254 90.39355469 241.29882812 C79.96762271 241.27161936 69.54217971 241.28043441 59.11625957 241.30796015 C50.14778059 241.33068592 41.17944839 241.33383433 32.2109499 241.32076681 C26.86189579 241.31299139 21.51307114 241.31187813 16.16403198 241.32844925 C11.13392239 241.34294521 6.10444021 241.33277872 1.07439804 241.30397797 C-0.76616502 241.29739451 -2.60678133 241.29921766 -4.44732285 241.31029129 C-15.81808237 241.37237058 -24.2108644 240.87166981 -33.3203125 233.32275391 C-34.34511719 232.15292969 -34.34511719 232.15292969 -35.390625 230.95947266 C-36.08929688 230.19248047 -36.78796875 229.42548828 -37.5078125 228.63525391 C-44.19275542 218.68587388 -44.09547695 208.79839189 -44.04907227 197.22900391 C-44.05613882 195.37184974 -44.06488693 193.51470134 -44.07518005 191.65756226 C-44.09759937 186.6368868 -44.09475204 181.6165277 -44.08585858 176.59582138 C-44.08073352 172.39603588 -44.08805344 168.19630903 -44.09533066 163.99652958 C-44.11230549 154.0860127 -44.10878758 144.1756499 -44.09204102 134.26513672 C-44.07511468 124.05733993 -44.09096687 113.84997063 -44.1232639 103.6422205 C-44.14999114 94.86058683 -44.15722754 86.07908598 -44.14874882 77.29741573 C-44.14382968 72.06012923 -44.14598064 66.82309996 -44.16653633 61.58584595 C-44.18494316 56.66081193 -44.17887365 51.73639133 -44.15433693 46.81138992 C-44.14934526 45.00952075 -44.15277588 43.20760442 -44.16548538 41.40577316 C-44.22808225 31.76498159 -43.97333903 23.96409967 -38.515625 15.64697266 C-38.17225884 14.94883957 -37.82889269 14.25070648 -37.4751215 13.53141785 C-36.20580184 11.03848189 -34.64075916 9.45011679 -32.515625 7.64697266 C-31.525625 7.64697266 -30.535625 7.64697266 -29.515625 7.64697266 C-29.515625 6.98697266 -29.515625 6.32697266 -29.515625 5.64697266 C-19.88066247 -0.2318131 -10.89282519 -0.06716284 0 0 Z " fill="#24252A" transform="translate(73.515625,29.35302734375)"/>
<path d="M0 0 C3.75940012 1.7269078 6.29618634 3.83717743 8.4375 7.375 C9.468245 12.18514333 9.67924102 15.69376728 7.375 20.125 C5.67271993 22.8518948 5.67271993 22.8518948 6.69921875 25.2890625 C8.16826113 28.35067034 9.74978034 31.30284222 11.4375 34.25 C12.03433594 35.30703125 12.63117188 36.3640625 13.24609375 37.453125 C14.80997906 40.27109272 14.80997906 40.27109272 18 41 C18.928125 40.938125 19.85625 40.87625 20.8125 40.8125 C24.91304998 41.05370882 26.82040563 42.47077721 30 45 C32.44820359 48.67230539 32.61025832 51.72819179 32 56 C31.2265625 57.0209375 31.2265625 57.0209375 30.4375 58.0625 C28.59291319 60.10297627 28.59291319 60.10297627 29.3125 63.75 C29.539375 64.8225 29.76625 65.895 30 67 C29.34 67 28.68 67 28 67 C27.34 65.35 26.68 63.7 26 62 C25.01 62.495 25.01 62.495 24 63 C21.6670134 63.04022391 19.33293334 63.04320247 17 63 C16.75121094 63.6496875 16.50242187 64.299375 16.24609375 64.96875 C14.64117871 68.87286933 12.85970212 72.68135771 11.0625 76.5 C10.71509766 77.24636719 10.36769531 77.99273437 10.00976562 78.76171875 C8.53303935 81.90428125 7.05752993 84.90657751 5.234375 87.8671875 C3.75103111 89.96995434 3.75103111 89.96995434 4.1875 92.625 C4.96244996 95.2204806 4.96244996 95.2204806 7 98 C7.73024382 102.53430468 7.61755802 105.9991301 5.1875 109.9375 C2.3123076 112.64839569 0.6659106 113.92461389 -3.3125 114.375 C-7.64979941 113.9339187 -9.64731429 112.72893023 -13 110 C-15 107 -15 107 -15 104 C-24.9 104 -34.8 104 -45 104 C-45.33 105.98 -45.66 107.96 -46 110 C-48.54892251 113.27718609 -51.01339388 114.88745876 -55 116 C-59.50883297 116.3220595 -63.02849168 116.25409932 -67 114 C-70.40030264 110.97750877 -71.3133944 108.38836007 -71.875 104 C-72.20448555 98.29736551 -71.39490952 95.6151584 -67.625 91.25 C-64.46970264 88.67472054 -62.10042647 88.9269741 -58.125 89.0625 C-54.952733 89.07036633 -54.952733 89.07036633 -52 88 C-48.85815119 84.27690916 -46.8800992 80.27787369 -44.8671875 75.86572266 C-43.58527806 73.10774069 -42.10418536 70.46863333 -40.625 67.8125 C-40.16351563 66.95269531 -39.70203125 66.09289062 -39.2265625 65.20703125 C-38 63 -38 63 -36 60 C-36.99 59.67 -37.98 59.34 -39 59 C-41.42577243 55.35336184 -41.26559814 52.3945235 -40.65625 48.19140625 C-39.79757402 45.32404182 -38.29612229 43.57412665 -35.875 41.828125 C-33.64731836 40.84423227 -31.92592383 40.79917413 -29.5 40.75 C-26.44408375 40.58051221 -25.38378203 40.39903165 -23.23046875 38.16015625 C-21.69634881 35.82596364 -20.33235695 33.45412861 -19 31 C-18.22236436 29.80326478 -17.43283155 28.61406302 -16.625 27.4375 C-16.08875 26.633125 -15.5525 25.82875 -15 25 C-16.22007944 22.3094472 -16.22007944 22.3094472 -18 20 C-18.49929702 14.66325153 -18.93946961 9.70496337 -16.3125 4.9375 C-11.01807354 0.50162918 -6.94182137 -1.26970066 0 0 Z " fill="#BC6929" transform="translate(152,79)"/>
<path d="M0 0 C4.29238623 1.65091778 6.8793915 4.73754566 10 8 C8.53181332 11.10742423 6.79975 13.90471739 4.875 16.75 C4.33617187 17.54921875 3.79734375 18.3484375 3.2421875 19.171875 C2.83226562 19.77515625 2.42234375 20.3784375 2 21 C2.53025527 24.15899225 2.53025527 24.15899225 5 27 C8.2854488 27.50750835 11.49921112 27.56873757 14.8203125 27.6796875 C19.53493572 28.15462497 21.01849986 29.37385118 24 33 C26.30317075 37.60634149 26.17427712 41.03190449 25 46 C23.26973606 49.62531493 21.57921471 52.11620278 18 54 C13.53269348 55.10830124 10.07822768 55.36619053 5.6875 53.875 C2.20859338 51.44785585 -0.1037926 48.7924148 -2 45 C-9.26 44.67 -16.52 44.34 -24 44 C-24.495 42.515 -24.495 42.515 -25 41 C-25.99 40.34 -26.98 39.68 -28 39 C-23.375 34.125 -23.375 34.125 -20 33 C-20 32.34 -20 31.68 -20 31 C-20.99 30.67 -21.98 30.34 -23 30 C-23.0825 30.598125 -23.165 31.19625 -23.25 31.8125 C-24.20455872 34.5966296 -25.57132271 35.43311142 -28 37 C-28 29.3097561 -28 29.3097561 -25.3984375 25.90234375 C-24.0237015 24.56741671 -22.62115715 23.2606626 -21.1953125 21.98046875 C-19.0236674 20.0213512 -17.14788101 17.97241045 -15.25 15.75 C-8.77345906 8.25781969 -8.77345906 8.25781969 -5 7 C-4.29848848 5.6846659 -3.63474075 4.34882408 -3 3 C-1.375 1.25 -1.375 1.25 0 0 Z " fill="#2A2726" transform="translate(191,140)"/>
<path d="M0 0 C2.57364588 2.30356905 3.93858187 4.56352439 5.41015625 7.67578125 C5.84263672 8.58650391 6.27511719 9.49722656 6.72070312 10.43554688 C7.38489258 11.85963867 7.38489258 11.85963867 8.0625 13.3125 C8.50916016 14.25029297 8.95582031 15.18808594 9.41601562 16.15429688 C11.20563812 19.95022261 12.87324503 23.59235248 14.12109375 27.60546875 C14.41113281 28.39566406 14.70117188 29.18585938 15 30 C15.99 30.33 16.98 30.66 18 31 C17.01 31 16.02 31 15 31 C15.495 31.99 15.495 31.99 16 33 C17.6396875 33.185625 17.6396875 33.185625 19.3125 33.375 C23 34 23 34 25.4375 35.6875 C27.5122655 38.75815295 27.68131158 40.36633823 27 44 C24.8125 46.4375 24.8125 46.4375 22 48 C17.70731707 47.70731707 17.70731707 47.70731707 16 46 C15.67 46.99 15.34 47.98 15 49 C13.125 48.6875 13.125 48.6875 11 48 C9 45 9 45 9 42 C-0.9 42 -10.8 42 -21 42 C-21.33 43.98 -21.66 45.96 -22 48 C-24.54892251 51.27718609 -27.01339388 52.88745876 -31 54 C-35.50883297 54.3220595 -39.02849168 54.25409932 -43 52 C-46.40030264 48.97750877 -47.3133944 46.38836007 -47.875 42 C-48.20448555 36.29736551 -47.39490952 33.6151584 -43.625 29.25 C-40.46970264 26.67472054 -38.10042647 26.9269741 -34.125 27.0625 C-30.952733 27.07036633 -30.952733 27.07036633 -28 26 C-24.86076196 22.28000292 -22.88649984 18.28736261 -20.87597656 13.87890625 C-19.55707062 11.04994858 -18.0242557 8.34739157 -16.5 5.625 C-15.66518102 4.08413731 -14.8312252 2.54280434 -14 1 C-13.34 1.99 -12.68 2.98 -12 4 C-12.60642334 5.01368652 -12.60642334 5.01368652 -13.22509766 6.04785156 C-15.04180985 9.10564237 -16.83354008 12.17735256 -18.625 15.25 C-19.26179688 16.31347656 -19.89859375 17.37695312 -20.5546875 18.47265625 C-21.14765625 19.49746094 -21.740625 20.52226562 -22.3515625 21.578125 C-22.90666504 22.52075195 -23.46176758 23.46337891 -24.03369141 24.43457031 C-25.28686025 26.92896076 -25.28686025 26.92896076 -24.23583984 29.17871094 C-23.8280127 29.77973633 -23.42018555 30.38076172 -23 31 C-21.6984203 33.96470931 -21 35.73381035 -21 39 C-10.77 39 -0.54 39 10 39 C10.33 37.35 10.66 35.7 11 34 C11.26039063 33.23171875 11.52078125 32.4634375 11.7890625 31.671875 C12.10770668 27.63571536 10.23728849 24.70117631 8.375 21.25 C8.00834229 20.54133789 7.64168457 19.83267578 7.26391602 19.10253906 C4.90513097 14.57458357 2.42463344 10.12561252 -0.28515625 5.796875 C-1.19616695 3.50690274 -0.80312676 2.2831025 0 0 Z " fill="#B06328" transform="translate(128,141)"/>
<path d="M0 0 C2.97 0 5.94 0 9 0 C11.31113984 4.28611389 13.60413826 8.58118902 15.87890625 12.88671875 C16.60835373 14.26173996 17.34249038 15.63428723 18.08203125 17.00390625 C19.0890192 18.87079403 20.07752949 20.74642445 21.0625 22.625 C21.65160156 23.73101562 22.24070313 24.83703125 22.84765625 25.9765625 C24.81851822 31.14756985 23.02859108 33.92852231 21 39 C10.77 39 0.54 39 -10 39 C-14 30 -14 30 -15 27 C-13.73657227 24.1809082 -13.73657227 24.1809082 -11.81640625 20.80078125 C-11.48205063 20.20573288 -11.14769501 19.61068451 -10.8032074 18.99760437 C-9.7324091 17.09705011 -8.64771681 15.20485132 -7.5625 13.3125 C-6.83435773 12.0259158 -6.1071324 10.73881219 -5.38085938 9.45117188 C-3.59784271 6.2946835 -1.8022794 3.14553829 0 0 Z " fill="#262629" transform="translate(117,141)"/>
<path d="M0 0 C4.08803567 -0.63047725 8.18862856 -0.55739763 12.32128906 -0.5559082 C14.36194808 -0.56245811 16.39770607 -0.61686579 18.4375 -0.67382812 C19.72398437 -0.67962891 21.01046875 -0.68542969 22.3359375 -0.69140625 C23.51720215 -0.70373291 24.6984668 -0.71605957 25.91552734 -0.72875977 C29 0 29 0 31.35400391 2.85571289 C33 6 33 6 34 9 C32.90417529 11.7558952 31.74653824 14.34793749 30.4375 17 C30.07197021 17.75732422 29.70644043 18.51464844 29.32983398 19.29492188 C21.387822 35.612178 21.387822 35.612178 19 38 C17.48071962 38.07179964 15.95832518 38.08392007 14.4375 38.0625 C13.61121094 38.05347656 12.78492188 38.04445312 11.93359375 38.03515625 C11.29550781 38.02355469 10.65742188 38.01195312 10 38 C9.72325439 37.410979 9.44650879 36.82195801 9.16137695 36.21508789 C7.88162052 33.49603826 6.59708923 30.77926956 5.3125 28.0625 C4.87744141 27.13630859 4.44238281 26.21011719 3.99414062 25.25585938 C1.49007245 19.96949323 -1.14172046 14.82692148 -4.09301758 9.77514648 C-5 8 -5 8 -5 6 C-4.02246356 4.97803008 -3.0194119 3.98020375 -2 3 C-1.34 2.01 -0.68 1.02 0 0 Z " fill="#262629" transform="translate(133,133)"/>
<path d="M0 0 C0.73605469 0.08378906 1.47210938 0.16757813 2.23046875 0.25390625 C3.20628906 0.35574219 4.18210938 0.45757812 5.1875 0.5625 C6.15042969 0.66691406 7.11335938 0.77132812 8.10546875 0.87890625 C10.94233377 0.99758751 13.25423671 0.67765639 16 0 C18.79337508 3.4203326 21.41565861 6.89389738 23.875 10.5625 C24.51179688 11.49191406 25.14859375 12.42132813 25.8046875 13.37890625 C27 16 27 16 26.3203125 17.96484375 C25.88460937 18.63644531 25.44890625 19.30804688 25 20 C24.34 21.98 23.68 23.96 23 26 C13.43 26 3.86 26 -6 26 C-6.66 23.36 -7.32 20.72 -8 18 C-8.66 18 -9.32 18 -10 18 C-8.64737628 13.25869791 -6.66645646 9.67711421 -3.875 5.625 C-3.15054688 4.56539063 -2.42609375 3.50578125 -1.6796875 2.4140625 C-0.84824219 1.21910156 -0.84824219 1.21910156 0 0 Z " fill="#282629" transform="translate(139,105)"/>
<path d="M0 0 C0.52851563 0.8146875 1.05703125 1.629375 1.6015625 2.46875 C3.77948896 5.27080747 3.77948896 5.27080747 7.0234375 5.53125 C8.12945312 5.5209375 9.23546875 5.510625 10.375 5.5 C17.65523892 5.80232193 17.65523892 5.80232193 20.6875 8.1875 C24.11994332 12.36209322 25.09672637 15.16219903 24.8125 20.5625 C23.80031101 24.84483806 22.35299225 27.54293142 19.375 30.75 C15.70737469 32.68032911 12.12328231 33.11473481 8 33 C3.30314479 31.40484163 0.65441917 29.18581485 -2 25 C-2 23.68 -2 22.36 -2 21 C-9.26 21 -16.52 21 -24 21 C-20.84685215 18.89790143 -20.13896919 18.7565239 -16.55078125 18.8046875 C-15.27944336 18.81435547 -15.27944336 18.81435547 -13.98242188 18.82421875 C-12.66081055 18.84935547 -12.66081055 18.84935547 -11.3125 18.875 C-9.97348633 18.88853516 -9.97348633 18.88853516 -8.60742188 18.90234375 C-6.40467686 18.92590252 -4.20247412 18.95879671 -2 19 C-1.87625 17.88625 -1.7525 16.7725 -1.625 15.625 C-1 12 -1 12 1 10 C0.67091763 7.498974 0.04935699 5.17768518 -0.625 2.75 C-0.74875 2.1725 -0.8725 1.595 -1 1 C-0.67 0.67 -0.34 0.34 0 0 Z " fill="#B76628" transform="translate(192,162)"/>
<path d="M0 0 C3.44270451 1.53009089 6.18925822 3.4931222 9 6 C9.33 6.99 9.66 7.98 10 9 C8.12122905 11.745896 5.99902056 14.00097296 3.640625 16.34375 C1.95219638 18.04216932 0.30369123 19.78186207 -1.2890625 21.5703125 C-7.0037512 27.82015599 -11.58356613 30.75193566 -20 32 C-15.375 26.125 -15.375 26.125 -12 25 C-12 24.34 -12 23.68 -12 23 C-12.99 22.67 -13.98 22.34 -15 22 C-15.0825 22.598125 -15.165 23.19625 -15.25 23.8125 C-16.20455872 26.5966296 -17.57132271 27.43311142 -20 29 C-20 21.3097561 -20 21.3097561 -17.3984375 17.90234375 C-16.0237015 16.56741671 -14.62115715 15.2606626 -13.1953125 13.98046875 C-11.0236674 12.0213512 -9.14788101 9.97241045 -7.25 7.75 C-4.93021817 5.05331998 -2.56870444 2.46595627 0 0 Z " fill="#C26B27" transform="translate(183,148)"/>
<path d="M0 0 C3.41625138 2.27750092 3.9648201 3.11807539 5 7 C4.92645349 11.19215118 4.65315664 13.25079092 1.875 16.4375 C-1.81978748 18.44553668 -3.84536087 18.65599565 -8 18 C-11.22083055 16.12606223 -13.495267 14.78819693 -14.546875 11.0625 C-14.82872228 6.92873993 -14.29410588 5.36376253 -11.625 2.0625 C-7.29060137 -1.34309893 -5.40929265 -1.04389858 0 0 Z " fill="#282728" transform="translate(152,84)"/>
<path d="M0 0 C3.05067422 1.99227704 4.59426669 3.33682874 5.47265625 6.9375 C5.7595293 10.82131981 5.20766662 12.67845169 3.0625 16 C-1.05158687 18.68675061 -4.21694255 18.91913231 -9 18 C-11.5625 16.625 -11.5625 16.625 -13 14 C-13.72358826 9.41473542 -13.81981342 5.4970506 -11.5625 1.375 C-7.69893685 -0.69813144 -4.27939739 -0.86044823 0 0 Z " fill="#272628" transform="translate(98,172)"/>
<path d="M0 0 C3.36783781 0.70615954 4.82085562 1.69429938 6.9375 4.40625 C7.65478811 7.55761417 7.62249916 10.25076205 6.9375 13.40625 C4.94522296 16.45692422 3.60067126 18.00051669 0 18.87890625 C-3.92294665 19.16866935 -5.73419602 18.62511932 -9.0625 16.40625 C-11.28175086 13.07737371 -11.82140933 11.26688492 -11.5390625 7.34375 C-10.06424173 1.34775736 -5.60397091 -0.42454325 0 0 Z " fill="#272628" transform="translate(205.0625,171.59375)"/>
<path d="M0 0 C3.4375 1.0625 3.4375 1.0625 5.375 2.75 C6.78339562 5.81533164 6.91522045 7.71845685 6.4375 11.0625 C4.4375 13.9375 4.4375 13.9375 2.4375 16.0625 C3.7575 16.3925 5.0775 16.7225 6.4375 17.0625 C6.4375 17.7225 6.4375 18.3825 6.4375 19.0625 C1.02144121 18.65629559 -3.69628029 16.93824242 -7.5625 13.0625 C-8.52326768 10.19756023 -8.33740174 7.95818546 -7.5625 5.0625 C-5.45951049 0.94064055 -4.68611887 0.08221261 0 0 Z " fill="#D3D4D4" transform="translate(88.5625,207.9375)"/>
<path d="M0 0 C0 1.65 0 3.3 0 5 C0.9590625 5.2165625 0.9590625 5.2165625 1.9375 5.4375 C4 6 4 6 5 7 C5.57413536 11.55543464 5.63047301 14.97819891 3.1875 18.9375 C0.23762546 21.71881028 -1.33995559 22.93999596 -5.4375 23.3125 C-9.10495017 22.99079384 -10.3990807 22.49688253 -13 20 C-12.34 20 -11.68 20 -11 20 C-10.67 18.68 -10.34 17.36 -10 16 C-9.01 16.66 -8.02 17.32 -7 18 C-3.67759676 17.6758631 -2.39223697 17.39223697 0 15 C0.32378803 11.95639252 0.51045744 9.87078033 -1.0625 7.1875 C-3.90927247 5.44270397 -6.71846765 5.30957852 -10 5 C-10.33 4.01 -10.66 3.02 -11 2 C-9.5422647 1.664061 -8.08378894 1.33133376 -6.625 1 C-5.40683594 0.7215625 -5.40683594 0.7215625 -4.1640625 0.4375 C-2 0 -2 0 0 0 Z " fill="#BB6827" transform="translate(154,170)"/>
<path d="M0 0 C3 0.5625 3 0.5625 5.4375 2.6875 C7 5.5625 7 5.5625 7.0625 8.6875 C6 11.5625 6 11.5625 3.8125 13.5625 C0.13066335 14.87159747 -1.51453433 14.18905064 -5 12.5625 C-7 10.5625 -7 10.5625 -7.375 7.6875 C-7 4.5625 -7 4.5625 -5.375 2.1875 C-3 0.5625 -3 0.5625 0 0 Z " fill="#2F2A28" transform="translate(173,123.4375)"/>
<path d="M0 0 C2.375 1.625 2.375 1.625 4 4 C4.5625 7 4.5625 7 4 10 C1.8125 12.4375 1.8125 12.4375 -1 14 C-3.86321294 13.93182826 -5.39807715 13.37360729 -7.8125 11.875 C-9.70271646 8.89044769 -9.36799239 6.43459566 -9 3 C-6.84532543 -0.71082843 -4.00794956 -0.57256422 0 0 Z " fill="#2B2727" transform="translate(151,175)"/>
<path d="M0 0 C0.66 0 1.32 0 2 0 C2.33 2.31 2.66 4.62 3 7 C11.91 7 20.82 7 30 7 C30 7.33 30 7.66 30 8 C21.09 8 12.18 8 3 8 C2.67 10.31 2.34 12.62 2 15 C-0.50741838 18.31337429 -3.01488979 19.88787622 -7 21 C-9.3320802 21.07646165 -11.66845878 21.09143299 -14 21 C-14.33 20.34 -14.66 19.68 -15 19 C-14.67 18.34 -14.34 17.68 -14 17 C-11.03 17 -8.06 17 -5 17 C-4.690625 16.195625 -4.38125 15.39125 -4.0625 14.5625 C-3 12 -3 12 -2 11 C-1.79224439 9.33795513 -1.63281745 7.66970509 -1.5 6 C-1.11111111 1.11111111 -1.11111111 1.11111111 0 0 Z " fill="#C16A28" transform="translate(104,174)"/>
<path d="M0 0 C3.4375 0.75 3.4375 0.75 5.4375 2.75 C5.98771834 8.80240175 5.98771834 8.80240175 4.3125 11.6875 C1.54769567 13.25422245 -0.44438517 13.13976435 -3.5625 12.75 C-5.690252 11.28258483 -6.38499039 10.20856649 -7.3125 7.8125 C-7.60034323 5.43779337 -7.45136647 3.97216617 -6.5625 1.75 C-3.5625 -0.25 -3.5625 -0.25 0 0 Z " fill="#292728" transform="translate(122.5625,124.25)"/>
<path d="M0 0 C4.29238623 1.65091778 6.8793915 4.73754566 10 8 C8.70700306 10.88437779 7.34058637 12.87219421 5 15 C0.70761377 13.34908222 -1.8793915 10.26245434 -5 7 C-3.70700306 4.11562221 -2.34058637 2.12780579 0 0 Z " fill="#BC6727" transform="translate(191,140)"/>
<path d="M0 0 C0.99 0 1.98 0 3 0 C3 5.28 3 10.56 3 16 C2.01 16 1.02 16 0 16 C-1.60546875 13.8125 -1.60546875 13.8125 -3.1875 11 C-3.71730469 10.071875 -4.24710938 9.14375 -4.79296875 8.1875 C-5.19128906 7.465625 -5.58960938 6.74375 -6 6 C-6.33 8.97 -6.66 11.94 -7 15 C-7.66 15 -8.32 15 -9 15 C-9 10.38 -9 5.76 -9 1 C-5 2 -5 2 -3.25 4.4375 C-2 7 -2 7 -2 9 C-1.34 9 -0.68 9 0 9 C0 6.03 0 3.06 0 0 Z " fill="#D8D9DA" transform="translate(169,208)"/>
<path d="M0 0 C3 0.25 3 0.25 5 2.25 C5.33302312 5.3804173 5.47671956 7.42898298 3.875 10.1875 C2 11.25 2 11.25 -1.125 11.0625 C-2.07375 10.794375 -3.0225 10.52625 -4 10.25 C-5.38125018 7.48749964 -5.19079306 5.30268901 -5 2.25 C-3 0.25 -3 0.25 0 0 Z " fill="#F1F2F2" transform="translate(180,212.75)"/>
<path d="M0 0 C2.57364588 2.30356905 3.93858187 4.56352439 5.41015625 7.67578125 C6.05887695 9.04186523 6.05887695 9.04186523 6.72070312 10.43554688 C7.16349609 11.38494141 7.60628906 12.33433594 8.0625 13.3125 C8.50916016 14.25029297 8.95582031 15.18808594 9.41601562 16.15429688 C11.20563812 19.95022261 12.87324503 23.59235248 14.12109375 27.60546875 C14.41113281 28.39566406 14.70117188 29.18585938 15 30 C15.99 30.33 16.98 30.66 18 31 C16.35 31.33 14.7 31.66 13 32 C12.68248779 31.3294458 12.36497559 30.6588916 12.0378418 29.96801758 C10.59036045 26.91492223 9.13897093 23.86370055 7.6875 20.8125 C7.18798828 19.75740234 6.68847656 18.70230469 6.17382812 17.61523438 C5.68720703 16.59365234 5.20058594 15.57207031 4.69921875 14.51953125 C4.25408936 13.58214111 3.80895996 12.64475098 3.3503418 11.67895508 C2.02614221 8.94999203 2.02614221 8.94999203 0.31176758 6.29956055 C-1 4 -1 4 -0.6875 1.6875 C-0.460625 1.130625 -0.23375 0.57375 0 0 Z " fill="#AB632C" transform="translate(128,141)"/>
<path d="M0 0 C2.33944736 0.28730055 4.6739143 0.61936779 7 1 C7.09765625 7.15234375 7.09765625 7.15234375 7 9 C6 10 6 10 3.0625 10.25 C2.051875 10.1675 1.04125 10.085 0 10 C-2 7 -2 7 -1.6875 3.875 C-1 1 -1 1 0 0 Z " fill="#292B2F" transform="translate(85,211)"/>
<path d="M0 0 C1.8125 1.3125 1.8125 1.3125 3 3 C3 3.99 3 4.98 3 6 C0.36 6 -2.28 6 -5 6 C-4.67 6.66 -4.34 7.32 -4 8 C-2.02 8 -0.04 8 2 8 C1.01 9.485 1.01 9.485 0 11 C-2.86618213 11.4409511 -4.36655047 11.41501866 -6.8125 9.8125 C-8.42525784 7.35092224 -8.4334014 5.88934264 -8 3 C-5.85607122 -0.27231235 -3.76836426 -0.56525464 0 0 Z " fill="#E1E2E2" transform="translate(202,213)"/>
<path d="M0 0 C6.93359375 -0.09765625 6.93359375 -0.09765625 9 0 C10 1 10 1 10.09765625 3.28515625 C10.08605469 4.20167969 10.07445313 5.11820313 10.0625 6.0625 C10.05347656 6.98160156 10.04445313 7.90070313 10.03515625 8.84765625 C10.02355469 9.55792969 10.01195313 10.26820313 10 11 C9.01 11 8.02 11 7 11 C7 8.03 7 5.06 7 2 C5.68 2 4.36 2 3 2 C3 4.97 3 7.94 3 11 C2.01 11 1.02 11 0 11 C0 7.37 0 3.74 0 0 Z " fill="#D4D5D5" transform="translate(103,213)"/>
<path d="M0 0 C5.30014818 -0.50477602 7.81965318 0.79182686 12 4 C13 5 13 5 13.09765625 6.84765625 C13.04882812 9.92382812 13.04882812 9.92382812 13 13 C12.01 13 11.02 13 10 13 C9.525625 11.865625 9.05125 10.73125 8.5625 9.5625 C7.36377917 6.24259834 7.36377917 6.24259834 6 5 C3.67182036 4.63239269 1.3381615 4.29758419 -1 4 C-0.67 2.68 -0.34 1.36 0 0 Z " fill="#C46B28" transform="translate(170,120)"/>
<path d="M0 0 C6.93359375 -0.09765625 6.93359375 -0.09765625 9 0 C10 1 10 1 10.09765625 3.28515625 C10.08605469 4.20167969 10.07445312 5.11820313 10.0625 6.0625 C10.05347656 6.98160156 10.04445312 7.90070313 10.03515625 8.84765625 C10.02355469 9.55792969 10.01195312 10.26820313 10 11 C9.34 11 8.68 11 8 11 C7.67 8.36 7.34 5.72 7 3 C5.68 2.67 4.36 2.34 3 2 C3 4.97 3 7.94 3 11 C2.01 11 1.02 11 0 11 C0 7.37 0 3.74 0 0 Z " fill="#D8D9DA" transform="translate(128,213)"/>
<path d="M0 0 C0.99 0 1.98 0 3 0 C3 3.63 3 7.26 3 11 C1.68 11 0.36 11 -1 11 C-1.33 11.66 -1.66 12.32 -2 13 C-4.475 12.01 -4.475 12.01 -7 11 C-6.57847656 10.54109375 -6.15695313 10.0821875 -5.72265625 9.609375 C-4.90087891 8.68898437 -4.90087891 8.68898437 -4.0625 7.75 C-3.51722656 7.14671875 -2.97195312 6.5434375 -2.41015625 5.921875 C-0.93787201 3.91532695 -0.42470811 2.42997551 0 0 Z " fill="#747678" transform="translate(97,213)"/>
<path d="M0 0 C2.875 -0.1875 2.875 -0.1875 6 0 C6.66 0.99 7.32 1.98 8 3 C5.69 2.67 3.38 2.34 1 2 C1 2.66 1 3.32 1 4 C3.97 4.495 3.97 4.495 7 5 C7.042721 6.66611905 7.04063832 8.33382885 7 10 C6.67 10.33 6.34 10.66 6 11 C3.66055264 10.71269945 1.3260857 10.38063221 -1 10 C-1 9.34 -1 8.68 -1 8 C1.97 8.495 1.97 8.495 5 9 C3.60804085 6.2160817 1.84424221 6.02101003 -1 5 C-0.67 3.35 -0.34 1.7 0 0 Z " fill="#E0E1E1" transform="translate(208,213)"/>
<path d="M0 0 C6.15234375 -0.09765625 6.15234375 -0.09765625 8 0 C9 1 9 1 9.09765625 3.28515625 C9.08605469 4.20167969 9.07445313 5.11820313 9.0625 6.0625 C9.05347656 6.98160156 9.04445313 7.90070313 9.03515625 8.84765625 C9.02355469 9.55792969 9.01195313 10.26820313 9 11 C8.34 11 7.68 11 7 11 C7 8.03 7 5.06 7 2 C5.68 2.33 4.36 2.66 3 3 C2.67 5.64 2.34 8.28 2 11 C1.34 11 0.68 11 0 11 C0 7.37 0 3.74 0 0 Z " fill="#EBECED" transform="translate(116,213)"/>
<path d="M0 0 C0.99 0 1.98 0 3 0 C3 0.99 3 1.98 3 3 C3.66 3 4.32 3 5 3 C5 3.66 5 4.32 5 5 C4.34 5 3.68 5 3 5 C3 6.98 3 8.96 3 11 C3.66 11 4.32 11 5 11 C5 11.99 5 12.98 5 14 C1.125 13.125 1.125 13.125 0 12 C-0.25996373 10.54998009 -0.45919978 9.08877907 -0.625 7.625 C-0.72039062 6.83351562 -0.81578125 6.04203125 -0.9140625 5.2265625 C-1 3 -1 3 0 0 Z " fill="#D2D3D4" transform="translate(188,210)"/>
<path d="M0 0 C0 1.32 0 2.64 0 4 C-7.92 3.67 -15.84 3.34 -24 3 C-20.93999379 0.95999586 -20.10659178 0.72862085 -16.62109375 0.5859375 C-15.78255859 0.54726562 -14.94402344 0.50859375 -14.08007812 0.46875 C-13.20802734 0.4378125 -12.33597656 0.406875 -11.4375 0.375 C-10.56158203 0.33632812 -9.68566406 0.29765625 -8.78320312 0.2578125 C-2.80287388 0 -2.80287388 0 0 0 Z " fill="#B26225" transform="translate(192,180)"/>
<path d="M0 0 C0.66 0.66 1.32 1.32 2 2 C1.73165962 6.74068 0.90204408 10.20501928 -2 14 C-2.99 14.33 -3.98 14.66 -5 15 C-5.33 13.68 -5.66 12.36 -6 11 C-4.68 10.34 -3.36 9.68 -2 9 C-2 6.36 -2 3.72 -2 1 C-1.34 0.67 -0.68 0.34 0 0 Z " fill="#C36C29" transform="translate(215,177)"/>
<path d="M0 0 C0.33 0 0.66 0 1 0 C1.66 3.63 2.32 7.26 3 11 C4.65 11 6.3 11 8 11 C8.33 11.66 8.66 12.32 9 13 C11.02463255 13.65213292 11.02463255 13.65213292 13 14 C13 14.66 13 15.32 13 16 C7.61119649 15.59583974 2.82585586 13.89230994 -1 10 C-1.93364195 6.49380504 -1.64256759 3.28513519 0 0 Z " fill="#E9EAEB" transform="translate(82,211)"/>
<path d="M0 0 C3.39192363 0.59283621 5.2107757 1.76743189 7.75 4.0625 C8.67039063 4.88427734 8.67039063 4.88427734 9.609375 5.72265625 C10.29773438 6.35494141 10.29773438 6.35494141 11 7 C10.690625 7.598125 10.38125 8.19625 10.0625 8.8125 C8.89790296 11.08956772 8.89790296 11.08956772 8 14 C6.68 13.67 5.36 13.34 4 13 C4.495 12.21625 4.99 11.4325 5.5 10.625 C7.16537965 8.21447673 7.16537965 8.21447673 7 6 C6.401875 5.7525 5.80375 5.505 5.1875 5.25 C2.71352479 3.83629988 1.56629745 2.34944617 0 0 Z " fill="#392C24" transform="translate(185,148)"/>
<path d="M0 0 C1.32 0.33 2.64 0.66 4 1 C4.33 2.65 4.66 4.3 5 6 C4.34 5.67 3.68 5.34 3 5 C2.67 7.97 2.34 10.94 2 14 C1.34 14 0.68 14 0 14 C0 9.38 0 4.76 0 0 Z " fill="#EAEBEC" transform="translate(160,209)"/>
<path d="M0 0 C1.67542976 0.28604898 3.34385343 0.61781233 5 1 C5 2.65 5 4.3 5 6 C3.34385343 6.38218767 1.67542976 6.71395102 0 7 C-1 6 -1 6 -1.125 3.5 C-1 1 -1 1 0 0 Z " fill="#37393D" transform="translate(178,215)"/>
<path d="M0 0 C-0.99 0 -1.98 0 -3 0 C-3 0.66 -3 1.32 -3 2 C-0.27498092 2.90833969 1.62233971 3.18359985 4.44921875 3.31640625 C5.29677734 3.35830078 6.14433594 3.40019531 7.01757812 3.44335938 C7.89865234 3.48267578 8.77972656 3.52199219 9.6875 3.5625 C11.02651367 3.62727539 11.02651367 3.62727539 12.39257812 3.69335938 C14.59490108 3.79935353 16.79733473 3.90142051 19 4 C18.67 4.66 18.34 5.32 18 6 C10.74 5.67 3.48 5.34 -4 5 C-4.66 3.35 -5.32 1.7 -6 0 C-3.50907189 -1.24546405 -2.58919267 -0.7767578 0 0 Z " fill="#3A2E28" transform="translate(171,179)"/>
<path d="M0 0 C1.485 0.99 1.485 0.99 3 2 C5.51584891 2.24150773 5.51584891 2.24150773 8.1875 2.125 C9.53908203 2.09792969 9.53908203 2.09792969 10.91796875 2.0703125 C11.94857422 2.03550781 11.94857422 2.03550781 13 2 C13 2.66 13 3.32 13 4 C10.03 4 7.06 4 4 4 C3.67 4.99 3.34 5.98 3 7 C1.68 6.67 0.36 6.34 -1 6 C-0.67 4.02 -0.34 2.04 0 0 Z " fill="#AA612A" transform="translate(86,187)"/>
<path d="M0 0 C2.375 -0.125 2.375 -0.125 5 0 C7 2 7 2 7 5 C4.36 4.67 1.72 4.34 -1 4 C-0.67 2.68 -0.34 1.36 0 0 Z " fill="#9A9C9E" transform="translate(198,214)"/>
<path d="M0 0 C0.66 0.33 1.32 0.66 2 1 C2 4.3 2 7.6 2 11 C1.01 11 0.02 11 -1 11 C-1.0270043 9.54176788 -1.04639787 8.08339325 -1.0625 6.625 C-1.07410156 5.81289062 -1.08570312 5.00078125 -1.09765625 4.1640625 C-1 2 -1 2 0 0 Z " fill="#C7C8C9" transform="translate(111,213)"/>
<path d="M0 0 C1.32 0.33 2.64 0.66 4 1 C2.7319533 4.80414011 1.42086788 5.09067839 -2 7 C-3.34631825 7.98244845 -4.68441297 8.97676564 -6 10 C-6 8.02 -6 6.04 -6 4 C-5.34 4.66 -4.68 5.32 -4 6 C-1.7522025 3.94766315 -0.9977758 2.99332739 0 0 Z " fill="#4C3423" transform="translate(168,170)"/>
<path d="M0 0 C0.33 0 0.66 0 1 0 C1.49230769 7.38461538 1.49230769 7.38461538 -1 10.5 C-1.66 10.995 -2.32 11.49 -3 12 C-3 11.34 -3 10.68 -3 10 C-4.32 9.67 -5.64 9.34 -7 9 C-5.75 7.5 -5.75 7.5 -4 6 C-2.68 6 -1.36 6 0 6 C0 4.02 0 2.04 0 0 Z " fill="#AD6129" transform="translate(183,127)"/>
<path d="M0 0 C0.33 1.32 0.66 2.64 1 4 C2.32 4.33 3.64 4.66 5 5 C3.625 7.5 3.625 7.5 2 10 C1.34 10 0.68 10 0 10 C-0.33 9.34 -0.66 8.68 -1 8 C-1.66 7.67 -2.32 7.34 -3 7 C-2.34 6.34 -1.68 5.68 -1 5 C-0.35232207 2.42938689 -0.35232207 2.42938689 0 0 Z " fill="#AE6329" transform="translate(128,129)"/>
<path d="M0 0 C0.66 0.99 1.32 1.98 2 3 C-0.97 7.95 -0.97 7.95 -4 13 C-5.32 12.67 -6.64 12.34 -8 12 C-7.4225 11.319375 -6.845 10.63875 -6.25 9.9375 C-3.80164486 6.74103635 -1.93549485 3.52536562 0 0 Z " fill="#AC642A" transform="translate(134,108)"/>
<path d="M0 0 C1.010625 0.0825 2.02125 0.165 3.0625 0.25 C3.7225 1.24 4.3825 2.23 5.0625 3.25 C2.7525 2.92 0.4425 2.59 -1.9375 2.25 C-1.9375 2.91 -1.9375 3.57 -1.9375 4.25 C-0.9475 4.58 0.0425 4.91 1.0625 5.25 C-0.2575 5.58 -1.5775 5.91 -2.9375 6.25 C-3.31968767 4.59385343 -3.65145102 2.92542976 -3.9375 1.25 C-2.9375 0.25 -2.9375 0.25 0 0 Z " fill="#D8D9DA" transform="translate(210.9375,212.75)"/>
<path d="M0 0 C2.475 0.495 2.475 0.495 5 1 C5 4.3 5 7.6 5 11 C4.34 11 3.68 11 3 11 C2.92652344 10.06027344 2.92652344 10.06027344 2.8515625 9.1015625 C2.77679688 8.28429687 2.70203125 7.46703125 2.625 6.625 C2.55539063 5.81289062 2.48578125 5.00078125 2.4140625 4.1640625 C2.17107412 1.79665809 2.17107412 1.79665809 0 0 Z " fill="#F4F4F5" transform="translate(120,213)"/>
<path d="M0 0 C1.2065625 0.0309375 1.2065625 0.0309375 2.4375 0.0625 C2.7675 1.0525 3.0975 2.0425 3.4375 3.0625 C2.014375 3.248125 2.014375 3.248125 0.5625 3.4375 C-2.64917191 3.77937177 -2.64917191 3.77937177 -4.5625 6.0625 C-3.48963568 0.08511307 -3.48963568 0.08511307 0 0 Z " fill="#DADADC" transform="translate(87.5625,207.9375)"/>
<path d="M0 0 C0.99 0 1.98 0 3 0 C3 0.99 3 1.98 3 3 C2.34 3 1.68 3 1 3 C1 5.97 1 8.94 1 12 C0.67 12 0.34 12 0 12 C-0.19573608 10.56359829 -0.38127816 9.12580496 -0.5625 7.6875 C-0.66691406 6.88699219 -0.77132812 6.08648437 -0.87890625 5.26171875 C-1 3 -1 3 0 0 Z " fill="#D8D9DB" transform="translate(188,210)"/>
<path d="M0 0 C1.98 0 3.96 0 6 0 C6 0.99 6 1.98 6 3 C3.69 3 1.38 3 -1 3 C-0.67 2.01 -0.34 1.02 0 0 Z " fill="#CB6E26" transform="translate(90,191)"/>
<path d="M0 0 C1.98 0 3.96 0 6 0 C4.02579865 2.52259061 3.03254358 2.9929808 -0.1875 3.6875 C-1.5796875 3.8421875 -1.5796875 3.8421875 -3 4 C-3 3.34 -3 2.68 -3 2 C-2.01 2 -1.02 2 0 2 C0 1.34 0 0.68 0 0 Z " fill="#C76D27" transform="translate(92,168)"/>
<path d="M0 0 C2.64 0 5.28 0 8 0 C8 0.99 8 1.98 8 3 C5.6568787 2.74438677 3.32156597 2.40729228 1 2 C0.67 1.34 0.34 0.68 0 0 Z " fill="#C96D24" transform="translate(144,80)"/>
<path d="M0 0 C2.64 0 5.28 0 8 0 C7.67 0.66 7.34 1.32 7 2 C3.9375 2.625 3.9375 2.625 1 3 C0.67 2.01 0.34 1.02 0 0 Z " fill="#3A3C40" transform="translate(197,219)"/>
<path d="M0 0 C3.125 -0.1875 3.125 -0.1875 6 0 C6 0.99 6 1.98 6 3 C3.36 3 0.72 3 -2 3 C-1.34 2.01 -0.68 1.02 0 0 Z " fill="#DADADB" transform="translate(177,213)"/>
<path d="M0 0 C1.32 0 2.64 0 4 0 C3.67 1.32 3.34 2.64 3 4 C1.68 4.33 0.36 4.66 -1 5 C-0.67 3.35 -0.34 1.7 0 0 Z " fill="#C46C26" transform="translate(152,187)"/>
<path d="M0 0 C0.99 0.33 1.98 0.66 3 1 C2.45276317 4.37462715 1.9451 6.08235 0 9 C0 6.03 0 3.06 0 0 Z " fill="#C66C28" transform="translate(155,175)"/>
<path d="M0 0 C4.75 0.75 4.75 0.75 7 3 C3.37673261 4.2077558 2.35853631 3.54311128 -1 2 C-0.67 1.34 -0.34 0.68 0 0 Z " fill="#C86C25" transform="translate(202,168)"/>
<path d="M0 0 C0.33 0 0.66 0 1 0 C0.98839844 0.62648437 0.97679687 1.25296875 0.96484375 1.8984375 C0.95582031 2.71570313 0.94679687 3.53296875 0.9375 4.375 C0.92589844 5.18710938 0.91429687 5.99921875 0.90234375 6.8359375 C0.85533666 9.04937142 0.85533666 9.04937142 2 11 C1.01 11 0.02 11 -1 11 C-2.23076923 4.6 -2.23076923 4.6 -1.0625 1.5625 C-0.711875 1.046875 -0.36125 0.53125 0 0 Z " fill="#A86128" transform="translate(155,164)"/>
<path d="M0 0 C2 3 2 3 1.625 5.6875 C1.41875 6.450625 1.2125 7.21375 1 8 C0.34 8 -0.32 8 -1 8 C-1 7.34 -1 6.68 -1 6 C-1.99 5.67 -2.98 5.34 -4 5 C-3.525625 4.54625 -3.05125 4.0925 -2.5625 3.625 C-0.90972192 2.06741796 -0.90972192 2.06741796 0 0 Z " fill="#A8612A" transform="translate(102,163)"/>
</svg>
